<?xml version="1.0" standalone="no"?>
<!DOCTYPE svg PUBLIC "-//W3C//DTD SVG 20010904//EN"
 "http://www.w3.org/TR/2001/REC-SVG-20010904/DTD/svg10.dtd">
<svg version="1.0" xmlns="http://www.w3.org/2000/svg"
 width="970.000000pt" height="728.000000pt" viewBox="0 0 970.000000 728.000000"
 preserveAspectRatio="xMidYMid meet">

<g transform="translate(0.000000,728.000000) scale(0.100000,-0.100000)"
fill="#000000" stroke="none">
<path d="M0 3640 l0 -3640 4850 0 4850 0 0 3640 0 3640 -4850 0 -4850 0 0
-3640z m4492 2943 l158 -158 0 -970 0 -970 -155 -155 -155 -155 155 -155 155
-155 0 -1622 c0 -1292 -3 -1623 -12 -1622 -7 0 -204 112 -438 247 l-425 247
-3 1423 -2 1422 -435 0 -435 0 0 -918 0 -917 218 -126 217 -125 3 -252 c1
-139 1 -252 -1 -252 -3 0 -1058 607 -1252 721 l-60 35 -3 972 c-2 1088 -5
1042 63 1042 l35 0 -20 39 c-20 40 -20 40 0 85 l19 46 -35 0 c-67 0 -64 -44
-64 1032 l0 963 -210 210 c-115 115 -210 213 -210 217 0 5 615 8 1367 8 l1368
0 157 -157z m3648 149 c0 -4 -97 -104 -215 -222 l-215 -215 0 -732 0 -733
-435 0 -435 0 -2 733 -3 732 -435 0 -435 0 -3 -2332 c-1 -1425 2 -2333 7
-2333 10 0 835 474 859 492 9 8 12 205 12 924 l0 914 -220 0 -220 0 0 220 0
220 655 0 655 0 0 -1138 0 -1137 -197 -115 c-109 -62 -587 -338 -1063 -613
-476 -275 -969 -559 -1096 -633 -127 -73 -238 -136 -247 -140 -16 -6 -17 203
-17 2897 l0 2904 157 157 158 158 1367 0 c753 0 1368 -3 1368 -8z"/>
<path d="M2900 5350 l0 -950 435 0 435 0 0 950 0 950 -435 0 -435 0 0 -950z"/>
</g>
</svg>
